<?xml version="1.0" encoding="UTF-8" standalone="no"?>
<!-- Created with Inkscape (http://www.inkscape.org/) -->

<svg
   width="44.152092mm"
   height="44.147438mm"
   viewBox="0 0 44.152092 44.147438"
   version="1.1"
   id="svg172802"
   inkscape:version="1.1 (c68e22c387, 2021-05-23)"
   sodipodi:docname="TargetApproximationModelLogo.svg"
   xmlns:inkscape="http://www.inkscape.org/namespaces/inkscape"
   xmlns:sodipodi="http://sodipodi.sourceforge.net/DTD/sodipodi-0.dtd"
   xmlns:xlink="http://www.w3.org/1999/xlink"
   xmlns="http://www.w3.org/2000/svg"
   xmlns:svg="http://www.w3.org/2000/svg">
  <sodipodi:namedview
     id="namedview172804"
     pagecolor="#ffffff"
     bordercolor="#666666"
     borderopacity="1.0"
     inkscape:pageshadow="2"
     inkscape:pageopacity="0.0"
     inkscape:pagecheckerboard="0"
     inkscape:document-units="mm"
     showgrid="false"
     fit-margin-top="0"
     fit-margin-left="0"
     fit-margin-right="0"
     fit-margin-bottom="0"
     inkscape:zoom="0.41071317"
     inkscape:cx="620.87125"
     inkscape:cy="276.34858"
     inkscape:window-width="1920"
     inkscape:window-height="1017"
     inkscape:window-x="-8"
     inkscape:window-y="-8"
     inkscape:window-maximized="1"
     inkscape:current-layer="layer1" />
  <defs
     id="defs172799">
    <rect
       x="525.10504"
       y="3.4433119"
       width="48.206367"
       height="222.09361"
       id="rect102670" />
    <rect
       x="698.99231"
       y="280.62991"
       width="44.763054"
       height="63.701271"
       id="rect78652" />
    <linearGradient
       inkscape:collect="always"
       id="linearGradient72136">
      <stop
         style="stop-color:#181e5d;stop-opacity:1"
         offset="0"
         id="stop72130" />
      <stop
         style="stop-color:#a8522e;stop-opacity:1;"
         offset="0.71477532"
         id="stop72132" />
      <stop
         style="stop-color:#ff9600;stop-opacity:1"
         offset="1"
         id="stop72134" />
    </linearGradient>
    <rect
       x="289.46548"
       y="680.04456"
       width="1415.0831"
       height="167.46648"
       id="rect15614" />
    <linearGradient
       inkscape:collect="always"
       xlink:href="#linearGradient72136"
       id="linearGradient30159"
       x1="-96.035118"
       y1="134.77847"
       x2="-35.338573"
       y2="104.62642"
       gradientUnits="userSpaceOnUse" />
  </defs>
  <g
     inkscape:label="Ebene 1"
     inkscape:groupmode="layer"
     id="layer1"
     transform="translate(96.035117,-112.70476)">
    <path
       style="fill:url(#linearGradient30159);fill-opacity:1;stroke-width:0.198913"
       d="m -78.565012,156.4738 c -7.625435,-1.63092 -13.93082,-7.25633 -16.393036,-14.62522 -0.884647,-2.64756 -1.170081,-4.80805 -1.051583,-7.9596 0.117663,-3.12932 0.536346,-5.07508 1.679784,-7.80661 0.620224,-1.48163 2.471929,-4.62544 2.72439,-4.62544 0.0527,0 0.51029,0.40279 1.016835,0.89511 0.897156,0.87193 0.954,0.8951 2.195682,0.8951 0.701073,0 1.274678,0.0565 1.274678,0.12543 0,0.069 -0.294501,0.53892 -0.654438,1.04429 -0.359938,0.50538 -0.8575,1.25121 -1.105683,1.65741 l -0.45125,0.73855 2.44303,1.22464 c 2.213913,1.1098 2.462171,1.19223 2.647256,0.87891 0.57329,-0.97054 0.846147,-1.18799 1.161849,-0.92599 0.274533,0.22785 0.263813,0.32804 -0.10132,0.94688 -0.224584,0.38065 -0.374861,0.72274 -0.333948,0.7602 0.0409,0.0374 1.014249,0.53799 2.162971,1.11228 1.148723,0.5743 2.207922,1.21453 2.353763,1.42275 0.351735,0.50214 2.15128,1.35812 2.855203,1.35812 0.671782,0 0.698952,-0.12169 0.130038,-0.58237 -0.259738,-0.21032 -0.369365,-0.44502 -0.277391,-0.59385 0.112928,-0.18272 0.269332,-0.13595 0.607407,0.18166 0.297899,0.27986 0.501704,0.35268 0.589499,0.21062 0.07383,-0.11941 0.217509,-0.16562 0.319355,-0.10267 0.101839,0.0629 0.185168,-0.0593 0.185168,-0.27175 0,-0.61029 -1.162458,-8.22583 -1.272401,-8.33577 -0.128076,-0.12808 -2.904769,0.71327 -2.904769,0.88016 0,0.0697 0.627886,1.32029 1.395297,2.77906 0.767419,1.45877 1.353542,2.6523 1.302495,2.6523 -0.05105,0 -0.375154,-0.41036 -0.720236,-0.91192 -0.844636,-1.22764 -4.138114,-4.46115 -5.85636,-5.74973 -1.974097,-1.48045 -2.420176,-2.02356 -2.533915,-3.08507 -0.145495,-1.35783 -0.73537,-2.42492 -1.594372,-2.88425 -0.409203,-0.2188 -0.744241,-0.44329 -0.744542,-0.49885 -7.52e-4,-0.17848 2.446962,-1.73873 3.679352,-2.34515 3.203917,-1.57655 6.083688,-2.22827 9.846189,-2.22827 3.948045,0 6.863023,0.69242 10.1844,2.41918 11.735506,6.10122 15.534604,21.13162 8.111659,32.0922 -3.265932,4.82242 -8.474055,8.26626 -14.121055,9.33748 -2.261591,0.42902 -6.553996,0.38986 -8.750001,-0.0798 z m 1.793831,-4.7324 c 0.0023,-0.0821 0.179386,-1.2233 0.394212,-2.53613 0.214819,-1.31282 0.392212,-2.44774 0.394205,-2.52203 0.0023,-0.0743 -0.509884,-0.28434 -1.137506,-0.4668 -0.627615,-0.18245 -1.386997,-0.45888 -1.687505,-0.61428 l -0.546383,-0.28255 -1.196732,2.38733 c -0.658198,1.31302 -1.196725,2.43225 -1.196725,2.48716 0,0.14239 1.263025,0.67428 2.88423,1.21462 1.45329,0.48437 2.086085,0.58499 2.092204,0.33268 z m 8.005047,-0.4425 c 2.778459,-0.89002 2.697326,-0.67366 1.329469,-3.54538 l -1.165224,-2.44631 -0.558374,0.28875 c -0.307109,0.15881 -1.071882,0.43803 -1.699504,0.62048 -0.627615,0.18246 -1.141122,0.41548 -1.141122,0.51784 0,0.28481 0.581755,4.20131 0.699441,4.70876 0.133617,0.57617 0.319679,0.5656 2.535314,-0.14414 z m -15.540597,-6.29745 1.92354,-1.91632 -0.875693,-1.07512 c -0.481631,-0.59131 -0.877061,-1.13876 -0.878737,-1.21655 -0.0015,-0.0778 -0.07789,-0.2595 -0.169388,-0.40379 -0.128519,-0.20268 -0.733159,0.02 -2.659187,0.97938 l -2.492837,1.24172 0.609249,1.00975 c 0.628351,1.04141 2.353717,3.29519 2.523615,3.29651 0.05278,4e-4 0.961488,-0.86161 2.019438,-1.91558 z m 23.168422,1.36931 c 0.546692,-0.59806 2.464577,-3.40571 2.464577,-3.60797 0,-0.0691 -1.083903,-0.69607 -2.408673,-1.39319 -1.918262,-1.00943 -2.444136,-1.21152 -2.58282,-0.99254 -0.09578,0.15122 -0.175514,0.33405 -0.177191,0.40628 -0.0015,0.0722 -0.361088,0.58428 -0.798701,1.13789 -0.437606,0.55362 -0.795649,1.04463 -0.795649,1.09112 0,0.1085 3.61739,3.90542 3.720762,3.90542 0.0427,0 0.30268,-0.24615 0.577695,-0.54701 z m -14.573575,-1.5913 c 0.368771,-2.30782 1.125131,-7.51004 1.125131,-7.73862 0,-0.14719 -0.112958,-0.26762 -0.25101,-0.26762 -0.368696,0 -4.171982,7.70513 -3.889472,7.87973 0.281157,0.17376 2.370099,0.84722 2.672937,0.86173 0.122769,0.006 0.276857,-0.32497 0.342414,-0.73522 z m 5.3023,0.33713 c 1.445352,-0.38997 1.469349,-0.2285 -0.663002,-4.46103 -1.157142,-2.29681 -2.071041,-3.88234 -2.237775,-3.88234 -0.155005,0 -0.281833,0.0959 -0.281833,0.21307 0,0.23438 1.151805,7.36244 1.310622,8.11093 0.10565,0.49789 0.09867,0.49782 1.871988,0.0194 z m -8.161954,-6.00474 c 2.219506,-2.29374 2.947997,-3.16298 2.723157,-3.24925 -0.281758,-0.10812 -1.302344,0.38786 -6.244301,3.03459 l -1.637992,0.87724 0.518822,0.83662 c 0.614481,0.99087 1.288482,1.76067 1.476025,1.68582 0.07383,-0.0295 1.497729,-1.46271 3.164289,-3.18502 z m 13.070561,2.5484 c 0.308823,-0.37539 0.721845,-0.95493 0.917839,-1.28786 l 0.356344,-0.60533 -3.977087,-1.99044 c -2.558303,-1.28037 -4.024975,-1.91297 -4.111312,-1.77328 -0.12373,0.20021 5.798742,6.33943 6.115617,6.33943 0.07541,0 0.389776,-0.30713 0.698599,-0.68252 z m -22.661583,-4.80573 2.436686,-0.36976 v -1.80503 -1.80504 l -2.635596,-0.40965 c -1.449576,-0.22531 -2.652383,-0.39802 -2.6729,-0.38381 -0.02052,0.0142 -0.09914,0.70825 -0.174717,1.54231 -0.164794,1.81855 0.03962,3.81638 0.377402,3.68865 0.127843,-0.0483 1.32895,-0.25429 2.669125,-0.45767 z m 31.350284,-0.23049 c 0.156599,-0.94744 0.163185,-3.20396 0.01158,-3.96209 l -0.116114,-0.58059 -2.618929,0.41084 -2.618936,0.41083 -0.05653,1.78804 -0.05654,1.78805 2.542967,0.41927 c 1.398642,0.23059 2.598389,0.43103 2.666126,0.44541 0.06774,0.0144 0.178642,-0.3095 0.246454,-0.71976 z m -19.410582,-2.02511 c -0.04293,-0.22308 -1.060958,-0.44475 -4.23278,-0.92168 -2.296919,-0.34538 -4.213616,-0.59556 -4.259326,-0.55597 -0.152614,0.13216 -0.264624,2.23471 -0.14454,2.71315 l 0.118453,0.47197 4.287383,-0.70687 c 3.42738,-0.56508 4.276031,-0.76579 4.23081,-1.0006 z m 13.047677,1.32892 c 0.150359,-0.56107 0.155479,-1.90651 0.0093,-2.45072 -0.110108,-0.41 -0.130016,-0.40864 -4.407941,0.30261 -4.213631,0.70056 -5.201996,1.04026 -3.793407,1.30379 0.710568,0.13293 7.474045,1.22462 7.846628,1.26652 0.123994,0.014 0.27942,-0.17605 0.345383,-0.4222 z m -3.305875,-5.11199 c 1.121372,-0.56974 2.038857,-1.07949 2.038857,-1.13277 0,-0.23048 -0.501681,-1.02924 -1.150482,-1.83177 l -0.700065,-0.86594 -1.383524,1.46268 c -0.760938,0.80447 -2.145898,2.23645 -3.077689,3.18219 -1.007753,1.02282 -1.637067,1.81189 -1.553234,1.94753 0.09628,0.15578 0.718484,-0.0815 1.964098,-0.749 1.002746,-0.53736 2.740667,-1.44318 3.862039,-2.01292 z m -4.739273,-1.88033 c 1.102322,-2.12268 2.004222,-3.90774 2.004222,-3.96678 0,-0.18469 -2.768453,-1.00859 -2.910783,-0.86625 -0.134421,0.13442 -1.457004,7.68075 -1.462447,8.34437 -0.0068,0.84324 0.4906,0.10583 2.369008,-3.51134 z m 10.162703,-0.916 c 1.311141,-0.65726 2.383894,-1.24942 2.383894,-1.31591 0,-0.19047 -1.728042,-2.68756 -2.383796,-3.44469 l -0.592784,-0.68442 -1.644585,1.56831 c -0.904524,0.86257 -1.809905,1.71878 -2.011966,1.9027 -0.35369,0.32193 -0.329617,0.38124 0.64647,1.59255 0.557615,0.69199 1.013843,1.32979 1.013843,1.41732 0,0.25365 0.0818,0.22092 2.588924,-1.03586 z m -16.566739,-4.49382 c 0.85017,-0.2844 1.569721,-0.5396 1.598996,-0.5671 0.05654,-0.0532 -0.492637,-4.06772 -0.663167,-4.84766 -0.08791,-0.40208 -0.183543,-0.44526 -0.740076,-0.33418 -0.923514,0.18431 -3.132999,0.90307 -3.77768,1.2289 l -0.552698,0.27933 1.248892,2.37567 c 0.686886,1.30661 1.269386,2.37712 1.294428,2.3789 0.02503,0.002 0.741136,-0.22946 1.591305,-0.51386 z m 10.161891,-1.84684 1.234811,-2.36393 -0.847756,-0.39317 c -0.942121,-0.43696 -2.499182,-0.94981 -3.475999,-1.14491 -0.74203,-0.14821 -0.666949,-0.34058 -1.162067,2.97752 -0.27021,1.81084 -0.280036,2.19808 -0.05781,2.27807 2.191337,0.78896 2.686237,0.9587 2.864345,0.98243 0.115325,0.0153 0.765351,-1.03584 1.444494,-2.33601 z m -13.715167,6.8892 c -1.785028,-1.99659 -3.739947,-4.14484 -4.344263,-4.77391 l -1.098759,-1.14375 h -1.355902 c -1.592741,0 -1.962362,-0.16231 -2.624026,-1.1523 -0.271052,-0.40555 -0.806813,-1.18326 -1.190575,-1.72825 -0.383762,-0.54498 -0.697742,-1.05968 -0.697742,-1.14375 0,-0.0841 0.402798,-0.15287 0.895104,-0.15287 0.492306,0 0.895111,-0.0492 0.895111,-0.10931 0,-0.0601 -0.319633,-0.43844 -0.710297,-0.84069 -0.869671,-0.89546 -0.512567,-1.13953 0.388897,-0.26579 0.351292,0.34048 0.696675,0.61906 0.767524,0.61906 0.07082,0 0.156096,-0.39794 0.189445,-0.8843 l 0.0606,-0.8843 0.998281,0.63565 c 1.193913,0.76023 2.525765,1.7497 2.728284,2.02692 0.08038,0.11003 0.14863,0.82663 0.151668,1.59244 0.0068,1.69159 -0.187551,1.45613 5.371293,6.51018 2.133297,1.93957 4.000662,3.66964 4.149698,3.84459 0.234042,0.27474 0.195077,0.39734 -0.285855,0.89933 -0.30626,0.31966 -0.666227,0.58121 -0.799927,0.58121 -0.133692,0 -1.703563,-1.63357 -3.488591,-3.63016 z"
       id="path117332" />
    <text
       xml:space="preserve"
       transform="matrix(0.26458333,0,0,0.26458333,-97.805858,110.43742)"
       id="text78650"
       style="font-style:normal;font-weight:normal;font-size:40px;line-height:1.25;font-family:sans-serif;white-space:pre;shape-inside:url(#rect78652);fill:#000000;fill-opacity:1;stroke:none" />
    <text
       xml:space="preserve"
       transform="matrix(0.26458333,0,0,0.26458333,-97.805858,110.43742)"
       id="text102668"
       style="font-style:normal;font-weight:normal;font-size:40px;line-height:1.25;font-family:sans-serif;white-space:pre;shape-inside:url(#rect102670);fill:#000000;fill-opacity:1;stroke:none" />
  </g>
</svg>
